<svg width="22" height="23" viewBox="0 0 22 23" fill="none" xmlns="http://www.w3.org/2000/svg">
<path d="M16.6738 16.5205H6.91133C6.00383 16.5205 5.133 16.1355 4.51883 15.4663C3.90467 14.7972 3.59301 13.8988 3.66634 12.9913L4.42718 3.86134C4.45468 3.57718 4.35383 3.30218 4.16133 3.09135C3.96883 2.88051 3.703 2.77051 3.41884 2.77051H1.83301C1.45717 2.77051 1.14551 2.45884 1.14551 2.08301C1.14551 1.70717 1.45717 1.39551 1.83301 1.39551H3.42801C4.09718 1.39551 4.72967 1.67967 5.17884 2.1655C5.42634 2.4405 5.60967 2.76135 5.7105 3.11885H17.1597C18.0855 3.11885 18.938 3.48551 19.5613 4.14551C20.1755 4.81467 20.4872 5.68551 20.4138 6.61134L19.9188 13.4863C19.818 15.1638 18.3513 16.5205 16.6738 16.5205ZM5.75634 4.48467L5.04134 13.1013C4.99551 13.633 5.16967 14.1372 5.52717 14.5313C5.88467 14.9255 6.37967 15.1363 6.91133 15.1363H16.6738C17.6272 15.1363 18.4888 14.3297 18.5622 13.3763L19.0572 6.50135C19.0938 5.96052 18.9197 5.44718 18.5622 5.07135C18.2047 4.68635 17.7097 4.47549 17.1688 4.47549H5.75634V4.48467Z" fill="#FAFAFA"/>
<path d="M14.8958 21.1042C13.8875 21.1042 13.0625 20.2792 13.0625 19.2708C13.0625 18.2625 13.8875 17.4375 14.8958 17.4375C15.9042 17.4375 16.7292 18.2625 16.7292 19.2708C16.7292 20.2792 15.9042 21.1042 14.8958 21.1042ZM14.8958 18.8125C14.6392 18.8125 14.4375 19.0142 14.4375 19.2708C14.4375 19.5275 14.6392 19.7292 14.8958 19.7292C15.1525 19.7292 15.3542 19.5275 15.3542 19.2708C15.3542 19.0142 15.1525 18.8125 14.8958 18.8125Z" fill="#FAFAFA"/>
<path d="M7.56283 21.1042C6.55449 21.1042 5.72949 20.2792 5.72949 19.2708C5.72949 18.2625 6.55449 17.4375 7.56283 17.4375C8.57116 17.4375 9.39616 18.2625 9.39616 19.2708C9.39616 20.2792 8.57116 21.1042 7.56283 21.1042ZM7.56283 18.8125C7.30616 18.8125 7.10449 19.0142 7.10449 19.2708C7.10449 19.5275 7.30616 19.7292 7.56283 19.7292C7.81949 19.7292 8.02116 19.5275 8.02116 19.2708C8.02116 19.0142 7.81949 18.8125 7.56283 18.8125Z" fill="#FAFAFA"/>
<path d="M19.25 8.27051H8.25C7.87417 8.27051 7.5625 7.95884 7.5625 7.58301C7.5625 7.20717 7.87417 6.89551 8.25 6.89551H19.25C19.6258 6.89551 19.9375 7.20717 19.9375 7.58301C19.9375 7.95884 19.6258 8.27051 19.25 8.27051Z" fill="#FAFAFA"/>
</svg>
